<svg width="213" height="60" viewBox="0 0 213 60" fill="none" xmlns="http://www.w3.org/2000/svg">
<path d="M33.9401 31.8936C33.9401 31.2469 33.5998 30.6479 33.0416 30.328L18.1215 21.7448C17.8696 21.5951 17.5837 21.5202 17.2978 21.5066C17.2706 21.5066 17.1617 21.5066 17.1413 21.5066C16.8554 21.5202 16.5763 21.5951 16.3177 21.7448L1.40431 30.328C0.846163 30.6479 0.499023 31.2469 0.499023 31.8936L0.533057 55.0089C0.533057 55.3289 0.703223 55.6284 0.982296 55.7849C1.26137 55.9483 1.6017 55.9483 1.88077 55.7849L10.743 50.7071C11.3012 50.3736 11.6415 49.7883 11.6415 49.1416V38.3395C11.6415 37.6996 11.9818 37.1006 12.54 36.7807L16.3177 34.6094C16.5968 34.446 16.9031 34.3712 17.223 34.3712C17.5293 34.3712 17.8424 34.4529 18.1215 34.6094L21.8923 36.7807C22.4505 37.1006 22.7908 37.6996 22.7908 38.3395V49.1416C22.7908 49.7883 23.138 50.3736 23.6961 50.7071L32.5584 55.7849C32.8374 55.9483 33.1846 55.9483 33.4568 55.7849C33.7291 55.6284 33.9061 55.3289 33.9061 55.0089L33.9401 31.8936ZM113.592 0.113283C113.313 -0.0432698 112.972 -0.0364641 112.7 0.126896C112.428 0.290255 112.257 0.582944 112.257 0.902856V23.7936C112.257 24.0183 112.135 24.2293 111.944 24.3382C111.754 24.4471 111.509 24.4539 111.311 24.3382L107.575 22.1873C107.016 21.8674 106.329 21.8674 105.771 22.1873L90.8506 30.7977C90.2924 31.1176 89.9453 31.7166 89.9453 32.3564V49.5841C89.9453 50.2307 90.2856 50.8229 90.8437 51.1428L105.764 59.76C106.322 60.0799 107.01 60.0799 107.568 59.76L122.495 51.1428C123.053 50.8161 123.393 50.2239 123.393 49.5841V6.64086C123.393 5.98742 123.039 5.38844 122.467 5.06853L113.585 0.113283H113.592ZM112.21 43.9277C112.21 44.0911 112.128 44.2408 111.985 44.3157L106.86 47.2698C106.724 47.3515 106.547 47.3515 106.411 47.2698L101.285 44.3157C101.142 44.234 101.061 44.0843 101.061 43.9277V38.0127C101.061 37.8494 101.149 37.6996 101.285 37.6248L106.411 34.6639C106.547 34.5822 106.724 34.5822 106.86 34.6639L111.985 37.6248C112.121 37.7064 112.21 37.8562 112.21 38.0127V43.9277ZM166.983 37.8562C167.534 37.5363 167.881 36.9441 167.881 36.2975V32.125C167.881 31.4783 167.541 30.893 166.983 30.5663L152.158 21.9558C151.6 21.6291 150.912 21.6291 150.354 21.9558L135.434 30.5663C134.876 30.8862 134.536 31.4852 134.536 32.125V49.3458C134.536 49.9925 134.883 50.5914 135.448 50.9114L150.273 59.3584C150.817 59.6715 151.491 59.6715 152.042 59.3652L161.007 54.3827C161.286 54.2262 161.463 53.9267 161.47 53.6C161.476 53.2733 161.299 52.9738 161.02 52.8104L146.005 44.1932C145.726 44.0366 145.556 43.7371 145.556 43.4104V38.0127C145.556 37.6928 145.726 37.3933 146.005 37.23L150.681 34.5413C150.96 34.3848 151.3 34.3848 151.58 34.5413L156.256 37.23C156.535 37.3933 156.705 37.686 156.705 38.0127V42.2601C156.705 42.58 156.875 42.8795 157.154 43.0429C157.433 43.2062 157.78 43.1994 158.059 43.0429L166.99 37.8494L166.983 37.8562ZM61.0783 21.8674C61.6364 21.5474 62.3239 21.5474 62.882 21.8674L77.8022 30.4778C78.3603 30.7977 78.7007 31.3899 78.7007 32.0365V49.2709C78.7007 49.9176 78.3535 50.5098 77.8022 50.8297L62.882 59.4469C62.3239 59.7668 61.6364 59.7668 61.0783 59.4469L46.1581 50.8297C45.5999 50.5098 45.2596 49.9108 45.2596 49.2709V32.0365C45.2596 31.3899 45.5999 30.7977 46.1581 30.4778L61.0783 21.8674ZM195.952 59.6919C195.442 59.6919 194.924 59.5558 194.475 59.2971L189.778 56.52C189.077 56.1252 189.425 55.9891 189.649 55.9074C190.582 55.5807 190.772 55.5058 191.773 54.9409C191.875 54.8796 192.018 54.9068 192.127 54.9681L195.734 57.1122C195.864 57.1871 196.047 57.1871 196.17 57.1122L210.239 48.9919C210.369 48.917 210.45 48.7672 210.45 48.6107V32.37C210.45 32.2135 210.369 32.0637 210.232 31.982L196.17 23.8685C196.041 23.7936 195.864 23.7936 195.734 23.8685L181.672 31.982C181.536 32.0569 181.447 32.2135 181.447 32.37V48.6107C181.447 48.7672 181.536 48.9102 181.665 48.9851L185.517 51.2108C187.607 52.2591 188.887 51.0271 188.887 49.7882V33.7586C188.887 33.534 189.071 33.357 189.295 33.357H191.079C191.303 33.357 191.487 33.534 191.487 33.7586V49.7882C191.487 52.579 189.969 54.1785 187.321 54.1785C186.511 54.1785 185.865 54.1785 184.081 53.3005L180.392 51.1768C179.48 50.6527 178.915 49.6657 178.915 48.6107V32.37C178.915 31.315 179.48 30.328 180.392 29.8039L194.461 21.6768C195.353 21.1731 196.537 21.1731 197.416 21.6768L211.485 29.8039C212.397 30.328 212.962 31.315 212.962 32.37V48.6107C212.962 49.6657 212.397 50.6459 211.485 51.1768L197.416 59.2971C196.966 59.5558 196.456 59.6919 195.932 59.6919H195.952ZM200.302 48.5086C194.142 48.5086 192.855 45.6838 192.855 43.3083C192.855 43.0837 193.032 42.9067 193.263 42.9067H195.081C195.285 42.9067 195.455 43.0565 195.482 43.2539C195.755 45.1053 196.572 46.0446 200.302 46.0446C203.262 46.0446 204.528 45.3707 204.528 43.8052C204.528 42.8999 204.175 42.2261 199.566 41.7768C195.721 41.3956 193.338 40.5448 193.338 37.4682C193.338 34.6298 195.734 32.935 199.743 32.935C204.249 32.935 206.482 34.5005 206.761 37.8562C206.775 37.9719 206.734 38.0808 206.652 38.1693C206.57 38.2578 206.468 38.2986 206.353 38.2986H204.528C204.338 38.2986 204.175 38.1625 204.134 37.9787C203.698 36.032 202.629 35.4058 199.743 35.4058C196.51 35.4058 196.129 36.5357 196.129 37.3797C196.129 38.4075 196.572 38.7002 200.941 39.2788C205.264 39.8505 207.319 40.6605 207.319 43.6963C207.319 46.7593 204.767 48.5154 200.308 48.5154L200.302 48.5086ZM151.028 37.053C151.137 36.9917 151.266 36.9917 151.375 37.053L154.241 38.707C154.35 38.7683 154.418 38.884 154.418 39.0065V42.3145C154.418 42.4371 154.35 42.5528 154.241 42.614L151.375 44.2681C151.266 44.3293 151.137 44.3293 151.028 44.2681L148.169 42.614C148.06 42.5528 147.999 42.4371 147.999 42.3145V39.0065C147.999 38.884 148.067 38.7683 148.169 38.707L151.028 37.053Z" fill="#231F20"/>
</svg>
