<svg width="61" height="60" viewBox="0 0 61 60" fill="none" xmlns="http://www.w3.org/2000/svg">
<g clip-path="url(#clip0_135_84)">
<path d="M47.4985 26.2503C47.9337 26.7326 48.0369 27.5606 47.8094 28.7335C47.5716 29.9552 47.1139 30.8267 46.4356 31.3492C45.7567 31.8716 44.7244 32.1328 43.3381 32.1328H41.2464L42.5304 25.5269H44.8862C46.1929 25.5269 47.0632 25.7682 47.4985 26.2503ZM18.0493 25.5269H15.6935L14.4093 32.1328H16.5009C17.8869 32.1328 18.9195 31.8716 19.5984 31.3492C20.2768 30.8267 20.7344 29.9551 20.9722 28.7335C21.1997 27.5605 21.0964 26.7326 20.6613 26.2503C20.2261 25.7682 19.3558 25.5269 18.0493 25.5269ZM60.4413 30.0003C60.4413 38.699 47.0359 45.7507 30.5 45.7507C13.964 45.7507 0.558594 38.699 0.558594 30.0003C0.558594 21.3017 13.964 14.25 30.5 14.25C47.0359 14.25 60.4413 21.3017 60.4413 30.0003ZM23.7666 31.0885C24.1229 30.4501 24.3763 29.7454 24.5263 28.9748C24.8899 27.1037 24.6155 25.6464 23.7032 24.6022C22.7914 23.5581 21.3401 23.0362 19.3513 23.0362H12.7393L9.67167 38.82H13.1102L13.9256 34.6241H16.871C18.1702 34.6241 19.2393 34.4877 20.0786 34.2143C20.9178 33.9413 21.6804 33.4838 22.367 32.841C22.943 32.3113 23.4093 31.7274 23.7666 31.0885ZM35.8688 34.6241L37.2962 27.2785C37.5868 25.7848 37.3688 24.7038 36.6433 24.0367C35.9172 23.3701 34.5985 23.0362 32.6861 23.0362H29.6471L30.4628 18.8398H27.0515L23.9833 34.624H27.3946L29.152 25.5812H31.8786C32.7514 25.5812 33.322 25.7256 33.59 26.0146C33.858 26.3037 33.9149 26.8455 33.7605 27.6398L32.4033 34.624H35.8688V34.6241ZM50.5403 24.6023C49.6286 23.5582 48.1773 23.0364 46.1885 23.0364H39.5764L36.5086 38.8201H39.9473L40.7625 34.6242H43.708C45.0072 34.6242 46.0764 34.4878 46.9156 34.2144C47.7547 33.9415 48.5174 33.484 49.204 32.8411C49.7806 32.3113 50.2465 31.7276 50.6036 31.0887C50.9603 30.4502 51.2132 29.7456 51.3633 28.9749C51.7269 27.1037 51.4526 25.6464 50.5403 24.6023Z" fill="#231F20"/>
</g>
<defs>
<clipPath id="clip0_135_84">
<rect width="59.9999" height="59.9999" fill="white" transform="translate(0.5)"/>
</clipPath>
</defs>
</svg>
